<mxfile host="app.diagrams.net" agent="Mozilla/5.0 (Windows NT 10.0; Win64; x64) AppleWebKit/537.36 (KHTML, like Gecko) Chrome/131.0.0.0 Safari/537.36" version="26.0.4">
  <diagram name="第 1 页" id="IKAsNgudQ-va_i8T_Nu8">
    <mxGraphModel dx="1744" dy="931" grid="1" gridSize="10" guides="1" tooltips="1" connect="1" arrows="1" fold="1" page="1" pageScale="1" pageWidth="827" pageHeight="1169" math="0" shadow="0">
      <root>
        <mxCell id="0" />
        <mxCell id="1" parent="0" />
        <mxCell id="ctNKX3Q5okMNMLX7ErLB-8" value="" style="group" vertex="1" connectable="0" parent="1">
          <mxGeometry x="376.5" y="580" width="75" height="123" as="geometry" />
        </mxCell>
        <mxCell id="ctNKX3Q5okMNMLX7ErLB-2" value="" style="verticalLabelPosition=bottom;sketch=0;aspect=fixed;html=1;verticalAlign=top;strokeColor=none;align=center;outlineConnect=0;shape=mxgraph.citrix.firewall;" vertex="1" parent="ctNKX3Q5okMNMLX7ErLB-8">
          <mxGeometry width="75" height="93" as="geometry" />
        </mxCell>
        <mxCell id="ctNKX3Q5okMNMLX7ErLB-7" value="&lt;span style=&quot;color: rgb(94, 94, 94); font-family: Arial, sans-serif; font-size: 14px; text-align: start; background-color: rgb(255, 255, 255);&quot;&gt;firewall&lt;/span&gt;" style="text;strokeColor=none;align=center;fillColor=none;html=1;verticalAlign=middle;whiteSpace=wrap;rounded=0;" vertex="1" parent="ctNKX3Q5okMNMLX7ErLB-8">
          <mxGeometry x="7.5" y="93" width="60" height="30" as="geometry" />
        </mxCell>
        <mxCell id="ctNKX3Q5okMNMLX7ErLB-9" value="" style="group" vertex="1" connectable="0" parent="1">
          <mxGeometry x="374" y="290" width="78.5" height="110" as="geometry" />
        </mxCell>
        <mxCell id="ctNKX3Q5okMNMLX7ErLB-1" value="" style="verticalLabelPosition=bottom;sketch=0;aspect=fixed;html=1;verticalAlign=top;strokeColor=none;align=center;outlineConnect=0;shape=mxgraph.citrix.globe;" vertex="1" parent="ctNKX3Q5okMNMLX7ErLB-9">
          <mxGeometry width="78.5" height="75" as="geometry" />
        </mxCell>
        <mxCell id="ctNKX3Q5okMNMLX7ErLB-5" value="internet" style="text;strokeColor=none;align=center;fillColor=none;html=1;verticalAlign=middle;whiteSpace=wrap;rounded=0;" vertex="1" parent="ctNKX3Q5okMNMLX7ErLB-9">
          <mxGeometry x="10" y="75" width="60" height="35" as="geometry" />
        </mxCell>
        <mxCell id="ctNKX3Q5okMNMLX7ErLB-12" value="" style="group" vertex="1" connectable="0" parent="1">
          <mxGeometry x="384" y="460" width="60" height="66.5" as="geometry" />
        </mxCell>
        <mxCell id="ctNKX3Q5okMNMLX7ErLB-10" value="" style="verticalLabelPosition=bottom;sketch=0;aspect=fixed;html=1;verticalAlign=top;strokeColor=none;align=center;outlineConnect=0;shape=mxgraph.citrix.router;" vertex="1" parent="ctNKX3Q5okMNMLX7ErLB-12">
          <mxGeometry x="2.5" width="55" height="36.5" as="geometry" />
        </mxCell>
        <mxCell id="ctNKX3Q5okMNMLX7ErLB-11" value="Router" style="text;strokeColor=none;align=center;fillColor=none;html=1;verticalAlign=middle;whiteSpace=wrap;rounded=0;" vertex="1" parent="ctNKX3Q5okMNMLX7ErLB-12">
          <mxGeometry y="36.5" width="60" height="30" as="geometry" />
        </mxCell>
        <mxCell id="ctNKX3Q5okMNMLX7ErLB-14" style="edgeStyle=orthogonalEdgeStyle;rounded=0;orthogonalLoop=1;jettySize=auto;html=1;exitX=0.5;exitY=1;exitDx=0;exitDy=0;" edge="1" parent="1" source="ctNKX3Q5okMNMLX7ErLB-5" target="ctNKX3Q5okMNMLX7ErLB-10">
          <mxGeometry relative="1" as="geometry" />
        </mxCell>
        <mxCell id="ctNKX3Q5okMNMLX7ErLB-15" style="edgeStyle=orthogonalEdgeStyle;rounded=0;orthogonalLoop=1;jettySize=auto;html=1;" edge="1" parent="1" source="ctNKX3Q5okMNMLX7ErLB-11" target="ctNKX3Q5okMNMLX7ErLB-2">
          <mxGeometry relative="1" as="geometry" />
        </mxCell>
        <mxCell id="ctNKX3Q5okMNMLX7ErLB-18" value="" style="group" vertex="1" connectable="0" parent="1">
          <mxGeometry x="374" y="780" width="80" height="81" as="geometry" />
        </mxCell>
        <mxCell id="ctNKX3Q5okMNMLX7ErLB-16" value="" style="image;points=[];aspect=fixed;html=1;align=center;shadow=0;dashed=0;image=img/lib/allied_telesis/switch/Switch_24_port_L3.svg;" vertex="1" parent="ctNKX3Q5okMNMLX7ErLB-18">
          <mxGeometry x="2.8000000000000114" width="74.4" height="51" as="geometry" />
        </mxCell>
        <mxCell id="ctNKX3Q5okMNMLX7ErLB-17" value="Layer3 Switch" style="text;strokeColor=none;align=center;fillColor=none;html=1;verticalAlign=middle;whiteSpace=wrap;rounded=0;" vertex="1" parent="ctNKX3Q5okMNMLX7ErLB-18">
          <mxGeometry y="51" width="80" height="30" as="geometry" />
        </mxCell>
        <mxCell id="ctNKX3Q5okMNMLX7ErLB-19" style="edgeStyle=orthogonalEdgeStyle;rounded=0;orthogonalLoop=1;jettySize=auto;html=1;entryX=0.499;entryY=0.092;entryDx=0;entryDy=0;entryPerimeter=0;" edge="1" parent="1" source="ctNKX3Q5okMNMLX7ErLB-7" target="ctNKX3Q5okMNMLX7ErLB-16">
          <mxGeometry relative="1" as="geometry" />
        </mxCell>
        <mxCell id="ctNKX3Q5okMNMLX7ErLB-48" value="" style="group" vertex="1" connectable="0" parent="1">
          <mxGeometry x="21.5" y="960" width="420" height="340" as="geometry" />
        </mxCell>
        <mxCell id="ctNKX3Q5okMNMLX7ErLB-38" value="" style="group" vertex="1" connectable="0" parent="ctNKX3Q5okMNMLX7ErLB-48">
          <mxGeometry width="420" height="340" as="geometry" />
        </mxCell>
        <mxCell id="ctNKX3Q5okMNMLX7ErLB-23" value="" style="rounded=0;whiteSpace=wrap;html=1;dashed=1;fillColor=#fff2cc;strokeColor=#d6b656;" vertex="1" parent="ctNKX3Q5okMNMLX7ErLB-38">
          <mxGeometry width="420" height="300" as="geometry" />
        </mxCell>
        <mxCell id="ctNKX3Q5okMNMLX7ErLB-24" value="人事部" style="text;strokeColor=none;align=center;fillColor=none;html=1;verticalAlign=middle;whiteSpace=wrap;rounded=0;" vertex="1" parent="ctNKX3Q5okMNMLX7ErLB-38">
          <mxGeometry width="60" height="30" as="geometry" />
        </mxCell>
        <mxCell id="ctNKX3Q5okMNMLX7ErLB-27" value="" style="group" vertex="1" connectable="0" parent="ctNKX3Q5okMNMLX7ErLB-38">
          <mxGeometry x="168.5" y="30" width="80" height="81" as="geometry" />
        </mxCell>
        <mxCell id="ctNKX3Q5okMNMLX7ErLB-20" value="" style="image;points=[];aspect=fixed;html=1;align=center;shadow=0;dashed=0;image=img/lib/allied_telesis/switch/Switch_24_port_L2.svg;" vertex="1" parent="ctNKX3Q5okMNMLX7ErLB-27">
          <mxGeometry x="2.7999999999999545" width="74.4" height="51" as="geometry" />
        </mxCell>
        <mxCell id="ctNKX3Q5okMNMLX7ErLB-25" value="Layer2 Switch" style="text;strokeColor=none;align=center;fillColor=none;html=1;verticalAlign=middle;whiteSpace=wrap;rounded=0;" vertex="1" parent="ctNKX3Q5okMNMLX7ErLB-27">
          <mxGeometry y="51" width="80" height="30" as="geometry" />
        </mxCell>
        <mxCell id="ctNKX3Q5okMNMLX7ErLB-51" value="" style="group" vertex="1" connectable="0" parent="ctNKX3Q5okMNMLX7ErLB-38">
          <mxGeometry x="18.5" y="150" width="71.5" height="127" as="geometry" />
        </mxCell>
        <mxCell id="ctNKX3Q5okMNMLX7ErLB-50" value="" style="verticalLabelPosition=bottom;sketch=0;aspect=fixed;html=1;verticalAlign=top;strokeColor=none;align=center;outlineConnect=0;shape=mxgraph.citrix.file_server;" vertex="1" parent="ctNKX3Q5okMNMLX7ErLB-51">
          <mxGeometry x="0.5" width="71" height="97" as="geometry" />
        </mxCell>
        <mxCell id="ctNKX3Q5okMNMLX7ErLB-42" value="File Server" style="text;strokeColor=none;align=center;fillColor=none;html=1;verticalAlign=middle;whiteSpace=wrap;rounded=0;" vertex="1" parent="ctNKX3Q5okMNMLX7ErLB-51">
          <mxGeometry y="97" width="70" height="30" as="geometry" />
        </mxCell>
        <mxCell id="ctNKX3Q5okMNMLX7ErLB-54" value="" style="group" vertex="1" connectable="0" parent="ctNKX3Q5okMNMLX7ErLB-38">
          <mxGeometry x="168.5" y="170" width="71" height="101" as="geometry" />
        </mxCell>
        <mxCell id="ctNKX3Q5okMNMLX7ErLB-52" value="" style="verticalLabelPosition=bottom;sketch=0;aspect=fixed;html=1;verticalAlign=top;strokeColor=none;align=center;outlineConnect=0;shape=mxgraph.citrix.thin_client;" vertex="1" parent="ctNKX3Q5okMNMLX7ErLB-54">
          <mxGeometry width="71" height="71" as="geometry" />
        </mxCell>
        <mxCell id="ctNKX3Q5okMNMLX7ErLB-53" value="PC 3台" style="text;strokeColor=none;align=center;fillColor=none;html=1;verticalAlign=middle;whiteSpace=wrap;rounded=0;" vertex="1" parent="ctNKX3Q5okMNMLX7ErLB-54">
          <mxGeometry x="5.5" y="71" width="60" height="30" as="geometry" />
        </mxCell>
        <mxCell id="ctNKX3Q5okMNMLX7ErLB-59" value="" style="group" vertex="1" connectable="0" parent="ctNKX3Q5okMNMLX7ErLB-38">
          <mxGeometry x="308.5" y="164" width="91.5" height="100" as="geometry" />
        </mxCell>
        <mxCell id="ctNKX3Q5okMNMLX7ErLB-55" value="" style="verticalLabelPosition=bottom;sketch=0;aspect=fixed;html=1;verticalAlign=top;strokeColor=none;align=center;outlineConnect=0;shape=mxgraph.citrix.printer;" vertex="1" parent="ctNKX3Q5okMNMLX7ErLB-59">
          <mxGeometry x="10.75" width="70" height="70" as="geometry" />
        </mxCell>
        <mxCell id="ctNKX3Q5okMNMLX7ErLB-56" value="Network Printer" style="text;strokeColor=none;align=center;fillColor=none;html=1;verticalAlign=middle;whiteSpace=wrap;rounded=0;" vertex="1" parent="ctNKX3Q5okMNMLX7ErLB-59">
          <mxGeometry y="70" width="91.5" height="30" as="geometry" />
        </mxCell>
        <mxCell id="ctNKX3Q5okMNMLX7ErLB-67" value="" style="endArrow=classic;html=1;rounded=0;exitX=0.5;exitY=1;exitDx=0;exitDy=0;" edge="1" parent="ctNKX3Q5okMNMLX7ErLB-38" source="ctNKX3Q5okMNMLX7ErLB-25" target="ctNKX3Q5okMNMLX7ErLB-52">
          <mxGeometry width="50" height="50" relative="1" as="geometry">
            <mxPoint x="228.5" y="160" as="sourcePoint" />
            <mxPoint x="278.5" y="110" as="targetPoint" />
          </mxGeometry>
        </mxCell>
        <mxCell id="ctNKX3Q5okMNMLX7ErLB-72" value="" style="endArrow=classic;html=1;rounded=0;exitX=0.5;exitY=1;exitDx=0;exitDy=0;" edge="1" parent="ctNKX3Q5okMNMLX7ErLB-38" source="ctNKX3Q5okMNMLX7ErLB-25" target="ctNKX3Q5okMNMLX7ErLB-55">
          <mxGeometry width="50" height="50" relative="1" as="geometry">
            <mxPoint x="218.5" y="150" as="sourcePoint" />
            <mxPoint x="268.5" y="100" as="targetPoint" />
          </mxGeometry>
        </mxCell>
        <mxCell id="ctNKX3Q5okMNMLX7ErLB-71" value="" style="endArrow=classic;html=1;rounded=0;exitX=0.5;exitY=1;exitDx=0;exitDy=0;" edge="1" parent="ctNKX3Q5okMNMLX7ErLB-38" source="ctNKX3Q5okMNMLX7ErLB-25" target="ctNKX3Q5okMNMLX7ErLB-50">
          <mxGeometry width="50" height="50" relative="1" as="geometry">
            <mxPoint x="218.5" y="150" as="sourcePoint" />
            <mxPoint x="268.5" y="100" as="targetPoint" />
          </mxGeometry>
        </mxCell>
        <mxCell id="ctNKX3Q5okMNMLX7ErLB-60" style="edgeStyle=orthogonalEdgeStyle;rounded=0;orthogonalLoop=1;jettySize=auto;html=1;entryX=0.512;entryY=0.05;entryDx=0;entryDy=0;entryPerimeter=0;" edge="1" parent="1" source="ctNKX3Q5okMNMLX7ErLB-17" target="ctNKX3Q5okMNMLX7ErLB-20">
          <mxGeometry relative="1" as="geometry" />
        </mxCell>
        <mxCell id="ctNKX3Q5okMNMLX7ErLB-92" value="" style="group" vertex="1" connectable="0" parent="1">
          <mxGeometry x="530" y="960" width="420" height="340" as="geometry" />
        </mxCell>
        <mxCell id="ctNKX3Q5okMNMLX7ErLB-93" value="" style="group" vertex="1" connectable="0" parent="ctNKX3Q5okMNMLX7ErLB-92">
          <mxGeometry width="420" height="340" as="geometry" />
        </mxCell>
        <mxCell id="ctNKX3Q5okMNMLX7ErLB-94" value="" style="rounded=0;whiteSpace=wrap;html=1;dashed=1;fillColor=#dae8fc;strokeColor=#6c8ebf;" vertex="1" parent="ctNKX3Q5okMNMLX7ErLB-93">
          <mxGeometry width="420" height="300" as="geometry" />
        </mxCell>
        <mxCell id="ctNKX3Q5okMNMLX7ErLB-95" value="総務部" style="text;strokeColor=none;align=center;fillColor=none;html=1;verticalAlign=middle;whiteSpace=wrap;rounded=0;" vertex="1" parent="ctNKX3Q5okMNMLX7ErLB-93">
          <mxGeometry width="60" height="30" as="geometry" />
        </mxCell>
        <mxCell id="ctNKX3Q5okMNMLX7ErLB-96" value="" style="group" vertex="1" connectable="0" parent="ctNKX3Q5okMNMLX7ErLB-93">
          <mxGeometry x="168.5" y="30" width="80" height="81" as="geometry" />
        </mxCell>
        <mxCell id="ctNKX3Q5okMNMLX7ErLB-97" value="" style="image;points=[];aspect=fixed;html=1;align=center;shadow=0;dashed=0;image=img/lib/allied_telesis/switch/Switch_24_port_L2.svg;" vertex="1" parent="ctNKX3Q5okMNMLX7ErLB-96">
          <mxGeometry x="2.7999999999999545" width="74.4" height="51" as="geometry" />
        </mxCell>
        <mxCell id="ctNKX3Q5okMNMLX7ErLB-98" value="Layer2 Switch" style="text;strokeColor=none;align=center;fillColor=none;html=1;verticalAlign=middle;whiteSpace=wrap;rounded=0;" vertex="1" parent="ctNKX3Q5okMNMLX7ErLB-96">
          <mxGeometry y="51" width="80" height="30" as="geometry" />
        </mxCell>
        <mxCell id="ctNKX3Q5okMNMLX7ErLB-99" value="" style="group" vertex="1" connectable="0" parent="ctNKX3Q5okMNMLX7ErLB-93">
          <mxGeometry x="18.5" y="150" width="71.5" height="127" as="geometry" />
        </mxCell>
        <mxCell id="ctNKX3Q5okMNMLX7ErLB-100" value="" style="verticalLabelPosition=bottom;sketch=0;aspect=fixed;html=1;verticalAlign=top;strokeColor=none;align=center;outlineConnect=0;shape=mxgraph.citrix.file_server;" vertex="1" parent="ctNKX3Q5okMNMLX7ErLB-99">
          <mxGeometry x="0.5" width="71" height="97" as="geometry" />
        </mxCell>
        <mxCell id="ctNKX3Q5okMNMLX7ErLB-101" value="File Server" style="text;strokeColor=none;align=center;fillColor=none;html=1;verticalAlign=middle;whiteSpace=wrap;rounded=0;" vertex="1" parent="ctNKX3Q5okMNMLX7ErLB-99">
          <mxGeometry y="97" width="70" height="30" as="geometry" />
        </mxCell>
        <mxCell id="ctNKX3Q5okMNMLX7ErLB-102" value="" style="group" vertex="1" connectable="0" parent="ctNKX3Q5okMNMLX7ErLB-93">
          <mxGeometry x="168.5" y="170" width="71" height="101" as="geometry" />
        </mxCell>
        <mxCell id="ctNKX3Q5okMNMLX7ErLB-103" value="" style="verticalLabelPosition=bottom;sketch=0;aspect=fixed;html=1;verticalAlign=top;strokeColor=none;align=center;outlineConnect=0;shape=mxgraph.citrix.thin_client;" vertex="1" parent="ctNKX3Q5okMNMLX7ErLB-102">
          <mxGeometry width="71" height="71" as="geometry" />
        </mxCell>
        <mxCell id="ctNKX3Q5okMNMLX7ErLB-104" value="PC 4台" style="text;strokeColor=none;align=center;fillColor=none;html=1;verticalAlign=middle;whiteSpace=wrap;rounded=0;" vertex="1" parent="ctNKX3Q5okMNMLX7ErLB-102">
          <mxGeometry x="5.5" y="71" width="60" height="30" as="geometry" />
        </mxCell>
        <mxCell id="ctNKX3Q5okMNMLX7ErLB-105" value="" style="group" vertex="1" connectable="0" parent="ctNKX3Q5okMNMLX7ErLB-93">
          <mxGeometry x="308.5" y="164" width="91.5" height="100" as="geometry" />
        </mxCell>
        <mxCell id="ctNKX3Q5okMNMLX7ErLB-106" value="" style="verticalLabelPosition=bottom;sketch=0;aspect=fixed;html=1;verticalAlign=top;strokeColor=none;align=center;outlineConnect=0;shape=mxgraph.citrix.printer;" vertex="1" parent="ctNKX3Q5okMNMLX7ErLB-105">
          <mxGeometry x="10.75" width="70" height="70" as="geometry" />
        </mxCell>
        <mxCell id="ctNKX3Q5okMNMLX7ErLB-107" value="Network Printer" style="text;strokeColor=none;align=center;fillColor=none;html=1;verticalAlign=middle;whiteSpace=wrap;rounded=0;" vertex="1" parent="ctNKX3Q5okMNMLX7ErLB-105">
          <mxGeometry y="70" width="91.5" height="30" as="geometry" />
        </mxCell>
        <mxCell id="ctNKX3Q5okMNMLX7ErLB-108" value="" style="endArrow=classic;html=1;rounded=0;exitX=0.5;exitY=1;exitDx=0;exitDy=0;" edge="1" parent="ctNKX3Q5okMNMLX7ErLB-93" source="ctNKX3Q5okMNMLX7ErLB-98" target="ctNKX3Q5okMNMLX7ErLB-103">
          <mxGeometry width="50" height="50" relative="1" as="geometry">
            <mxPoint x="228.5" y="160" as="sourcePoint" />
            <mxPoint x="278.5" y="110" as="targetPoint" />
          </mxGeometry>
        </mxCell>
        <mxCell id="ctNKX3Q5okMNMLX7ErLB-109" value="" style="endArrow=classic;html=1;rounded=0;exitX=0.5;exitY=1;exitDx=0;exitDy=0;" edge="1" parent="ctNKX3Q5okMNMLX7ErLB-93" source="ctNKX3Q5okMNMLX7ErLB-98" target="ctNKX3Q5okMNMLX7ErLB-106">
          <mxGeometry width="50" height="50" relative="1" as="geometry">
            <mxPoint x="218.5" y="150" as="sourcePoint" />
            <mxPoint x="268.5" y="100" as="targetPoint" />
          </mxGeometry>
        </mxCell>
        <mxCell id="ctNKX3Q5okMNMLX7ErLB-110" value="" style="endArrow=classic;html=1;rounded=0;exitX=0.5;exitY=1;exitDx=0;exitDy=0;" edge="1" parent="ctNKX3Q5okMNMLX7ErLB-93" source="ctNKX3Q5okMNMLX7ErLB-98" target="ctNKX3Q5okMNMLX7ErLB-100">
          <mxGeometry width="50" height="50" relative="1" as="geometry">
            <mxPoint x="218.5" y="150" as="sourcePoint" />
            <mxPoint x="268.5" y="100" as="targetPoint" />
          </mxGeometry>
        </mxCell>
        <mxCell id="ctNKX3Q5okMNMLX7ErLB-111" style="edgeStyle=orthogonalEdgeStyle;rounded=0;orthogonalLoop=1;jettySize=auto;html=1;" edge="1" parent="1" source="ctNKX3Q5okMNMLX7ErLB-17" target="ctNKX3Q5okMNMLX7ErLB-97">
          <mxGeometry relative="1" as="geometry" />
        </mxCell>
      </root>
    </mxGraphModel>
  </diagram>
</mxfile>
